HIERARCHY
ROOT hip
{
	OFFSET 0.000000 0.000000 0.000000 
	CHANNELS 6 Xposition Yposition Zposition Xrotation Zrotation Yrotation
	JOINT abdomen
	{
		OFFSET 0.000000 3.402643 0.000000 
		CHANNELS 3 Xrotation Zrotation Yrotation
		JOINT chest
		{
			OFFSET 0.000000 8.438565 -0.680529 
			CHANNELS 3 Xrotation Zrotation Yrotation
			JOINT neck
			{
				OFFSET 0.000000 10.207942 -0.272212 
				CHANNELS 3 Xrotation Zrotation Yrotation
				JOINT head
				{
					OFFSET 0.000000 3.130431 0.000000 
					CHANNELS 3 Xrotation Zrotation Yrotation
					End Site
					{
						OFFSET 0.000000 3.130435 0.000000 
					}
				}
			}
			JOINT lCollar
			{
				OFFSET 3.470700 6.669187 -0.816635 
				CHANNELS 3 Yrotation Zrotation Xrotation
				JOINT lShldr
				{
					OFFSET 3.198488 0.000000 0.000000 
					CHANNELS 3 Zrotation Yrotation Xrotation
					JOINT lForeArm
					{
						OFFSET 10.139888 0.000000 0.000000 
						CHANNELS 3 Yrotation Zrotation Xrotation
						JOINT lHand
						{
							OFFSET 8.370511 0.000000 0.000000 
							CHANNELS 3 Zrotation Yrotation Xrotation
							End Site
							{
								OFFSET 4.083176 0.000000 0.000000 
							}
						}
					}
				}
			}
			JOINT rCollar
			{
				OFFSET -3.470700 6.669187 -0.816635 
				CHANNELS 3 Yrotation Zrotation Xrotation
				JOINT rShldr
				{
					OFFSET -3.198488 0.000000 0.000000 
					CHANNELS 3 Zrotation Yrotation Xrotation
					JOINT rForeArm
					{
						OFFSET -10.139888 0.000000 0.000000 
						CHANNELS 3 Yrotation Zrotation Xrotation
						JOINT rHand
						{
							OFFSET -8.370511 0.000000 0.000000 
							CHANNELS 3 Zrotation Yrotation Xrotation
							End Site
							{
								OFFSET -4.083176 0.000000 0.000000 
							}
						}
					}
				}
			}
		}
	}
	JOINT lThigh
	{
		OFFSET 5.308129 -1.633274 1.361059 
		CHANNELS 3 Xrotation Zrotation Yrotation
		JOINT lShin
		{
			OFFSET -2.041588 -20.007561 0.000000 
			CHANNELS 3 Xrotation Zrotation Yrotation
			JOINT lFoot
			{
				OFFSET 0.000000 -19.190928 -1.224953 
				CHANNELS 3 Xrotation Yrotation Zrotation
				End Site
				{
					OFFSET 0.000000 -2.449906 4.627600 
				}
			}
		}
	}
	JOINT rThigh
	{
		OFFSET -5.308129 -1.633274 1.361059 
		CHANNELS 3 Xrotation Zrotation Yrotation
		JOINT rShin
		{
			OFFSET 2.041588 -20.007561 0.000000 
			CHANNELS 3 Xrotation Zrotation Yrotation
			JOINT rFoot
			{
				OFFSET 0.000000 -19.190928 -1.224953 
				CHANNELS 3 Xrotation Yrotation Zrotation
				End Site
				{
					OFFSET 0.000000 -2.449906 4.627600 
				}
			}
		}
	}
}
MOTION
Frames: 18
Frame Time: 0.016667
28.711477 53.214359 47.905502 11.919583 -0.603918 4.101746 9.340899 17.683847 0.821459 0.000000 0.000000 0.000000 -33.821487 12.460133 -12.105029 0.000000 0.000000 0.000000 0.000000 0.000000 0.000000 -10.032862 6.049709 73.133530 -119.849930 39.397278 77.636604 12.201585 -39.122074 -72.873161 0.000000 0.000000 0.000000 39.384392 -5.437427 47.402313 50.534527 -35.679630 29.334553 -30.581940 1.429369 -5.676562 -24.170918 6.989622 -1.697801 20.111811 -6.195109 11.108610 39.332882 -2.467750 3.255243 -23.954227 -3.818149 7.212271 22.450279 0.503931 -15.569202 41.927727 -2.498355 7.811562 
29.091583 58.039211 49.214642 9.472581 -0.887325 3.154675 12.669689 23.598948 3.253060 0.000000 0.000000 0.000000 -30.238699 13.704530 -13.032537 0.000000 0.000000 0.000000 0.000000 0.000000 0.000000 -0.982965 7.195939 76.475388 -128.000931 35.079647 83.911621 15.789211 -43.021473 -79.948112 0.000000 0.000000 0.000000 36.117294 0.312963 43.546486 26.908520 -24.917377 20.311543 -21.476736 0.691462 -6.802024 -16.212400 6.754045 -0.045344 10.426161 -5.034010 12.488644 52.780788 -5.554951 2.393742 -18.248892 -3.710294 3.733854 16.714655 -1.878520 -16.989697 52.643150 5.860422 7.591298 
29.410685 61.000690 49.841640 7.889030 -1.063258 2.715282 15.559492 28.488375 5.605285 0.000000 0.000000 0.000000 -28.907703 13.957615 -14.600033 0.000000 0.000000 0.000000 0.000000 0.000000 0.000000 3.418316 10.119816 79.153809 -131.415436 32.781925 86.266930 15.782460 -41.411915 -79.579834 0.000000 0.000000 0.000000 33.290745 3.384761 42.966862 14.705811 -14.470046 15.502606 -18.865921 -1.217979 -6.726094 -12.707046 5.045513 1.096938 6.815662 -4.589478 13.114230 58.014648 -8.331172 3.177448 -15.891131 -3.270596 3.447323 14.491722 -2.998008 -16.135305 55.826706 8.054799 8.054536 
29.729105 63.950821 50.463028 6.317339 -1.249006 2.285677 18.813620 33.244320 8.360335 0.000000 0.000000 0.000000 -27.606634 14.235710 -16.141186 0.000000 0.000000 0.000000 0.000000 0.000000 0.000000 7.960505 12.827851 82.042885 -134.613510 30.387867 88.389359 15.751828 -39.760002 -79.146286 0.000000 0.000000 0.000000 30.432098 6.391240 42.252312 3.835514 -3.429546 13.101956 -16.310240 -3.114172 -6.720153 -9.298666 3.278012 2.160403 3.238750 -4.102572 13.679443 63.271629 -11.020514 4.217375 -13.568429 -2.821599 3.204793 12.252470 -4.062303 -15.230770 59.001072 10.263186 8.392124 
29.975439 65.703186 50.491020 5.967877 -1.248677 2.637156 21.015102 36.167122 9.718172 0.000000 0.000000 0.000000 -28.138754 14.496414 -17.223825 0.000000 0.000000 0.000000 0.000000 0.000000 0.000000 8.461416 15.716791 80.368065 -136.194061 29.934814 89.952553 12.726744 -33.257870 -73.028954 0.000000 0.000000 0.000000 29.058197 6.765658 43.142746 0.697636 -1.834970 9.340727 -19.961603 -4.667305 -5.718107 -9.291360 1.795584 2.537742 2.634099 -4.115833 13.910407 63.188034 -11.976118 5.795509 -13.709000 -3.095521 4.434365 11.694521 -4.540514 -15.442551 58.790874 9.969697 9.448746 
30.220652 67.448250 50.518425 5.618418 -1.248300 2.988848 23.372242 39.025047 11.258560 0.000000 0.000000 0.000000 -28.673147 14.758606 -18.299505 0.000000 0.000000 0.000000 0.000000 0.000000 0.000000 8.878736 18.602888 78.702667 -137.738968 29.442001 91.500671 10.665365 -26.561626 -67.670395 0.000000 0.000000 0.000000 27.692205 7.161975 44.010391 -2.309787 -0.063376 5.688748 -23.633087 -6.156228 -4.605096 -9.327088 0.331342 2.906851 2.039198 -4.128987 14.111506 63.108311 -12.908607 7.339689 -13.860431 -3.358629 5.664367 11.165711 -4.989293 -15.676696 58.561661 9.703705 10.498754 
30.349411 68.439148 50.484837 5.700213 -1.159922 3.516288 24.915693 40.973511 11.915033 0.000000 0.000000 0.000000 -29.019213 15.113925 -18.735922 0.000000 0.000000 0.000000 0.000000 0.000000 0.000000 8.560091 19.749535 76.628708 -139.377243 29.570539 94.001411 7.296854 -21.964514 -61.395607 0.000000 0.000000 0.000000 27.115915 7.644385 43.354912 -3.036976 0.378640 4.486061 -26.621758 -7.850709 -3.038671 -10.089604 -0.380874 2.975321 1.609782 -3.959468 13.461013 62.376301 -12.128632 7.103006 -14.440678 -4.149954 6.472751 11.027694 -4.991174 -16.694105 58.314373 9.911995 10.617783 
30.477753 69.422340 50.451042 5.793395 -1.071545 4.043539 26.529131 42.880756 12.658184 0.000000 0.000000 0.000000 -29.374870 15.458270 -19.163559 0.000000 0.000000 0.000000 0.000000 0.000000 0.000000 8.192851 20.879879 74.539482 -141.027115 29.634670 96.497719 4.558028 -17.129948 -55.618141 0.000000 0.000000 0.000000 26.536234 8.117365 42.677025 -3.755091 0.830238 3.294162 -29.633219 -9.450291 -1.389057 -10.875875 -1.073990 3.044713 1.191067 -3.819738 12.779235 61.651909 -11.350982 6.879527 -15.032157 -4.930659 7.298886 10.897199 -4.980315 -17.768797 58.087959 10.111638 10.694504 
30.561726 69.595886 50.395050 6.143778 -0.983324 4.473170 27.406504 43.665920 13.045101 0.000000 0.000000 0.000000 -29.714184 15.281763 -19.055895 0.000000 0.000000 0.000000 0.000000 0.000000 0.000000 8.254775 20.602806 73.542984 -142.243011 29.550304 97.788696 1.092679 -18.089432 -52.338860 0.000000 0.000000 0.000000 26.455185 8.680742 41.268471 -3.840941 0.941744 2.865150 -29.658911 -10.500870 -1.556403 -11.584188 -1.152005 2.938572 0.927222 -3.951960 11.296260 60.773472 -10.158258 6.539187 -15.967493 -5.369639 7.930077 11.340056 -4.716277 -19.068623 57.485939 10.299080 10.894890 
30.645279 69.761932 50.339550 6.495481 -0.895151 4.902812 28.292101 44.428101 13.454887 0.000000 0.000000 0.000000 -30.061333 15.105865 -18.939014 0.000000 0.000000 0.000000 0.000000 0.000000 0.000000 8.327612 20.328732 72.568169 -143.450104 29.440075 99.072784 -2.433073 -18.880219 -49.009136 0.000000 0.000000 0.000000 26.373844 9.230201 39.875923 -3.915159 1.045235 2.436087 -29.680208 -11.547673 -1.734349 -12.302870 -1.229888 2.824494 0.673929 -4.073991 9.831882 59.872665 -8.982018 6.192419 -16.916811 -5.799789 8.576736 11.780542 -4.443266 -20.355204 56.894268 10.474141 11.106063 
30.684462 69.146133 50.333946 6.935769 -0.885421 4.902813 28.373001 44.357037 13.228651 0.000000 0.000000 0.000000 -30.154905 14.404652 -18.520231 0.000000 0.000000 0.000000 0.000000 0.000000 0.000000 8.585145 20.133188 72.587204 -143.778519 29.453091 99.164680 -5.091664 -21.138676 -47.661457 0.000000 0.000000 0.000000 26.892948 9.642620 39.799538 -3.547527 0.716187 2.319991 -29.098778 -11.389008 -2.722958 -13.055113 -0.966343 2.259480 0.839041 -4.238101 9.557935 58.025764 -8.363546 6.227568 -18.256823 -5.722043 8.953949 12.278731 -3.928215 -21.195019 55.986816 10.885249 11.313678 
30.723282 68.516113 50.329155 7.375222 -0.885421 4.902813 28.448606 44.266430 13.002390 0.000000 0.000000 0.000000 -30.243893 13.691112 -18.097414 0.000000 0.000000 0.000000 0.000000 0.000000 0.000000 8.827107 19.930634 72.610825 -144.078293 29.476402 99.254211 -7.838642 -23.328646 -46.195015 0.000000 0.000000 0.000000 27.415886 10.056334 39.724495 -3.170737 0.366508 2.203688 -28.517792 -11.213682 -3.707696 -13.822587 -0.712366 1.673653 1.014852 -4.385458 9.272133 56.131096 -7.722198 6.272188 -19.605675 -5.643913 9.338288 12.749805 -3.381478 -22.017269 55.060810 11.253125 11.529290 
30.723282 66.405563 50.407532 7.902495 -0.623251 4.287280 27.544260 42.429646 12.057340 0.000000 0.000000 0.000000 -29.875019 12.027693 -17.125034 0.000000 0.000000 0.000000 0.000000 0.000000 0.000000 7.129097 18.715214 72.680222 -142.850861 30.251629 98.795845 -8.796618 -24.414583 -45.438789 0.000000 0.000000 0.000000 29.643015 9.892095 40.350582 -1.101015 -1.832261 1.309235 -27.557312 -10.976346 -5.512269 -15.069823 -0.186190 0.110198 1.992179 -4.195988 9.343356 52.675789 -6.458107 6.213610 -20.842869 -5.194897 9.061645 12.906725 -2.629637 -21.820831 53.452053 10.388255 10.214757 
30.723175 64.288689 50.486328 8.433891 -0.360586 3.671925 26.689228 40.571766 11.163919 0.000000 0.000000 0.000000 -29.542963 10.345444 -16.167961 0.000000 0.000000 0.000000 0.000000 0.000000 0.000000 5.414580 17.482758 72.779381 -141.578735 31.016951 98.308739 -9.790347 -25.468689 -44.642441 0.000000 0.000000 0.000000 31.896112 9.677806 40.965370 0.952944 -4.093590 0.489759 -26.599312 -10.696160 -7.306047 -16.328199 0.311861 -1.480280 2.968433 -4.020723 9.446867 49.252304 -5.181208 6.237700 -22.101725 -4.765298 8.786913 13.048410 -1.859672 -21.630661 51.861683 9.551003 8.858900 
30.711977 61.511951 50.609497 8.700926 0.351033 3.144593 24.817873 36.983200 9.371284 0.000000 0.000000 0.000000 -28.893770 8.156997 -14.662340 0.000000 0.000000 0.000000 0.000000 0.000000 0.000000 1.042862 14.297863 72.763748 -138.948959 32.727348 97.535011 -10.999113 -24.659090 -41.935112 0.000000 0.000000 0.000000 36.632195 7.966782 41.077797 5.438145 -9.170377 -0.314886 -26.120789 -10.187499 -8.489786 -17.406075 0.673725 -3.041660 5.348558 -4.351727 9.688313 46.274853 -3.689301 6.089422 -23.246162 -4.423513 8.958426 14.259762 -0.854487 -20.254725 49.736366 7.913947 6.820196 
30.701096 58.728146 50.732391 8.964808 1.063334 2.627407 23.147270 33.329807 7.795394 0.000000 0.000000 0.000000 -28.305223 5.953474 -13.177352 0.000000 0.000000 0.000000 0.000000 0.000000 0.000000 -3.262961 11.129622 73.011185 -136.229919 34.409279 96.637482 -12.178232 -23.780836 -39.222095 0.000000 0.000000 0.000000 41.387028 6.227265 41.052082 9.973224 -14.300802 -0.702553 -25.668678 -9.663126 -9.639896 -18.510765 1.015643 -4.576251 7.767280 -4.721278 9.929740 43.283443 -2.206282 6.010192 -24.408245 -4.092069 9.152630 15.534917 0.165306 -18.873810 47.542370 6.318293 4.756237 
30.723494 55.229237 50.827568 9.498661 2.468901 2.189675 19.207804 26.987762 5.108840 0.000000 0.000000 0.000000 -27.374586 3.685143 -10.686318 0.000000 0.000000 0.000000 0.000000 0.000000 0.000000 -7.682532 8.358583 74.130753 -132.465881 37.150387 94.963165 -15.018362 -20.926678 -33.446835 0.000000 0.000000 0.000000 49.392822 1.310849 40.534306 18.704924 -21.632109 1.740165 -27.084305 -8.414256 -7.864395 -21.040689 0.595773 -5.307279 14.727991 -6.020475 9.119132 37.967747 -1.128291 4.686719 -26.949759 -3.847961 10.381616 21.880816 1.931828 -15.825543 41.359356 3.307499 2.754264 
30.739843 51.753002 50.929951 10.021451 3.875126 1.762372 15.756558 20.491394 3.025312 0.000000 0.000000 0.000000 -26.539528 1.391722 -8.244483 0.000000 0.000000 0.000000 0.000000 0.000000 0.000000 -12.119096 5.699298 75.462837 -128.455475 39.792488 92.990677 -17.509218 -17.833649 -27.927181 0.000000 0.000000 0.000000 57.443764 -3.508382 39.338657 28.321611 -28.476740 5.597668 -28.458652 -7.114542 -6.106746 -23.579132 0.146804 -6.020607 21.781057 -7.213755 8.159421 32.589329 0.071716 3.456113 -29.506048 -3.555522 11.633543 28.346136 3.357481 -12.627202 35.023472 0.512103 0.467528 
